<?xml version="1.0" standalone="no"?>
<!DOCTYPE svg PUBLIC "-//W3C//DTD SVG 20010904//EN"
 "http://www.w3.org/TR/2001/REC-SVG-20010904/DTD/svg10.dtd">
<svg version="1.0" xmlns="http://www.w3.org/2000/svg"
 width="260.000000pt" height="260.000000pt" viewBox="0 0 260.000000 260.000000"
 preserveAspectRatio="xMidYMid meet">
<metadata>
Created by potrace 1.11, written by Peter Selinger 2001-2013
</metadata>
<g transform="translate(0.000000,260.000000) scale(0.100000,-0.100000)"
fill="#000000" stroke="none">
<path d="M0 1300 l0 -1300 1300 0 1300 0 0 1300 0 1300 -1300 0 -1300 0 0
-1300z m1138 666 l72 -18 0 -134 0 -135 -51 3 -51 3 -20 54 c-26 70 -91 136
-149 151 -57 16 -154 9 -201 -14 -88 -42 -160 -148 -201 -295 -18 -67 -21
-101 -21 -286 1 -184 4 -220 23 -290 30 -112 63 -175 120 -228 54 -50 98 -67
180 -67 120 0 196 54 243 170 l26 65 51 3 52 3 -3 -143 -3 -143 -85 -18 c-112
-23 -356 -33 -432 -18 -127 27 -245 116 -302 228 -94 187 -110 522 -35 746 38
116 70 169 144 242 63 62 137 105 227 130 71 20 315 14 416 -9z m953 -10 c137
-29 230 -104 264 -212 14 -43 17 -78 13 -153 -4 -82 -9 -106 -37 -163 -74
-155 -210 -217 -475 -218 l-128 0 4 -212 c6 -251 8 -260 85 -294 39 -17 53
-29 53 -44 0 -19 -6 -20 -220 -20 l-220 0 0 23 c0 17 11 28 43 42 23 11 48 31
54 45 10 19 13 155 13 555 0 400 -3 536 -13 555 -6 14 -31 34 -54 45 -32 14
-43 25 -43 42 l0 23 298 0 c216 0 315 -4 363 -14z"/>
<path d="M1730 1590 l0 -292 123 4 c99 4 132 9 175 28 91 40 131 106 139 236
10 140 -35 236 -131 287 -34 17 -63 22 -173 25 l-133 4 0 -292z"/>
</g>
</svg>
